<?xml version="1.0" encoding="UTF-8" standalone="no"?>
<!-- Created with Inkscape (http://www.inkscape.org/) -->

<svg
   width="69.067818mm"
   height="135.02382mm"
   viewBox="0 0 69.067818 135.02382"
   version="1.1"
   id="svg1"
   inkscape:version="1.3.1 (91b66b0783, 2023-11-16)"
   sodipodi:docname="treble_clef.svg"
   xmlns:inkscape="http://www.inkscape.org/namespaces/inkscape"
   xmlns:sodipodi="http://sodipodi.sourceforge.net/DTD/sodipodi-0.dtd"
   xmlns="http://www.w3.org/2000/svg"
   xmlns:svg="http://www.w3.org/2000/svg">
  <sodipodi:namedview
     id="namedview1"
     pagecolor="#ffffff"
     bordercolor="#000000"
     borderopacity="0.25"
     inkscape:showpageshadow="2"
     inkscape:pageopacity="0.0"
     inkscape:pagecheckerboard="0"
     inkscape:deskcolor="#d1d1d1"
     inkscape:document-units="mm"
     inkscape:zoom="2.0485264"
     inkscape:cx="90.552897"
     inkscape:cy="361.96751"
     inkscape:window-width="1920"
     inkscape:window-height="1009"
     inkscape:window-x="-8"
     inkscape:window-y="-8"
     inkscape:window-maximized="1"
     inkscape:current-layer="layer2" />
  <defs
     id="defs1" />
  <g
     inkscape:groupmode="layer"
     id="layer2"
     inkscape:label="Ebene 2"
     transform="translate(-57.99497,-47.720517)">
    <path
       id="path7"
       style="fill:#4a3f35;fill-opacity:1;fill-rule:evenodd;stroke:none;stroke-width:4.7625;stroke-linecap:square;stroke-linejoin:round;stroke-miterlimit:0;stroke-dasharray:none;stroke-opacity:1;paint-order:fill markers stroke"
       d="m 94.524907,91.465404 c -2.861624,-13.24262 -6.379853,-34.547524 2.703923,-37.1804 5.62515,-1.509893 7.35805,11.098594 4.922,19.736674 -1.64391,7.747693 -3.653137,12.298892 -7.625923,17.443726 z m 20.923803,77.313396 11.61408,-3.28111 c -1.7212,2.68053 -8.75029,11.56481 -15.90855,14.01424 -20.175254,6.40599 -53.159269,5.8543 -53.15927,-25.89754 0.547494,-21.73616 16.346833,-41.73709 31.506873,-56.98893 -6.910516,-27.435142 -5.340471,-42.024197 2.635544,-47.631848 8.067343,-4.590687 17.773223,3.878468 18.168973,15.087596 0.54797,15.434501 -6.76669,25.320129 -14.620934,34.087656 l 8.675274,39.006406 c 2.44465,12.15573 4.28278,23.03689 5.80487,36.28856 1.98541,-1.08352 3.80518,-2.54882 5.28314,-4.68503 z M 90.978986,102.85337 c 7.927251,29.1333 11.436804,45.89388 14.262684,71.65594 -18.265508,3.32196 -30.273201,0.0812 -34.861491,-13.7216 -6.08334,-24.52501 8.223689,-44.03127 20.598807,-57.93434 z"
       inkscape:label="path7"
       sodipodi:nodetypes="ccccccccccccccccccc" />
  </g>
</svg>
